# xmcd CD database file
# Generated: Wed Dec 31 09:13:27 2003 by KSCD
# 
# Track frame offsets:
#       150
#       17395
#       39810
#       63154
#       93518
#       118500
#       137115
#       166554
#       190971
#       219062
#       233769
#       253892
#
# Disc length: 3625 seconds
#
# Revision: 2
# Processed by: cddbd v1.4PL0 Copyright (c) Steve Scherf et al.
# Submitted via: Kscd 1.3.3
#
DISCID=8e0e270c
DTITLE=Adam Solomon - Rocket Express II - African Renaissance Blues
DYEAR=1900
DGENRE=
TTITLE0=Muche Njira Jirani
TTITLE1=Waria Kanga
TTITLE2=In The Nubians Pyramid
TTITLE3=Penzi Ra Hamu
TTITLE4=Dzigwirwa na Penziro
TTITLE5=Nipa Busu
TTITLE6=Adam Makossa
TTITLE7=Chila Siku
TTITLE8=Wira wa Akurima
TTITLE9=Siku Zidzazo
TTITLE10=Maisha Ga Maumbile
TTITLE11=Penzi Ra Kujali
EXTD=
EXTT0=The Girl Who Lives Down My Street
EXTT1=
EXTT2=
EXTT3=A Storm of Love
EXTT4=I'm Falling For Your Love
EXTT5=Baby Give Me a Kiss
EXTT6=
EXTT7=Everyday
EXTT8=The Farmer's Blues
EXTT9=Someday We'll Be together
EXTT10=Life and Creation
EXTT11=Baby Show Me You Care
PLAYORDER=
